<svg width="530" height="48" viewBox="0 0 530 48" fill="none"
     xmlns="http://www.w3.org/2000/svg">
  <path d="M322.173 13.7143V20.5714H328.58V13.7143H322.173Z" fill="white"/>
  <path d="M348.952 40.9756H342.216V47.8328H348.952V40.9756Z" fill="white"/>
  <path d="M348.952 27.2613H342.216V33.9512H348.952V27.2613Z" fill="white"/>
  <path d="M335.316 20.5714H342.052V13.7143H335.316V20.5714Z" fill="white"/>
  <path d="M322.173 34.1185H328.909V47.6655H335.48V27.2613H322.173V34.1185Z"
        fill="white"/>
  <path d="M355.524 47.6655H362.095V34.1185H368.831V27.2613H355.524V47.6655Z"
        fill="white"/>
  <path d="M348.952 20.5714H355.36V13.7143H348.952V20.5714Z" fill="white"/>
  <path d="M362.26 20.4042H362.095V20.5714H368.831V13.7143H362.26V20.4042Z"
        fill="white"/>
  <path d="M368.831 0H322.173V6.85714H368.831V0Z" fill="white"/>
  <path d="M348.95 20.4042H348.788V20.5714H348.95V20.4042Z" fill="white"/>
  <path d="M362.258 20.4042V13.7143H362.095V20.4042L362.258 20.4042Z"
        fill="white"/>
  <path
    d="M161.004 47.8328H167.74V6.85714H201.255V47.8328H207.991V0H161.004V47.8328Z"
    fill="white"/>
  <path
    d="M195.341 19.5679L191.727 15.0523C191.562 14.885 191.234 14.3833 190.577 14.0488C189.427 13.547 188.112 13.8815 187.291 14.885C186.798 15.554 186.634 16.3902 186.798 17.2265C186.962 17.8955 187.291 18.3972 187.455 18.5645L189.919 21.5749L187.291 24.9199C185.976 26.5923 186.469 28.0976 187.291 28.9338L189.755 31.9443L187.126 35.2892C186.962 35.6237 186.305 36.4599 186.305 37.6307V38.1324L186.634 38.6342C187.126 39.4704 187.948 39.9721 188.769 39.9721H188.934C189.755 39.9721 190.577 39.6376 191.069 38.8014L195.012 33.9512C195.505 33.2822 195.67 32.7805 195.834 32.1115L195.998 31.9443L195.834 31.777C195.834 31.108 195.505 30.6063 195.012 29.9373L194.355 29.2683C193.862 28.5993 193.369 28.0976 192.877 27.4286C192.712 27.2613 192.548 27.0941 192.384 26.9268C193.205 25.7561 194.191 24.7526 195.012 23.5819C195.505 22.9129 195.834 22.4111 195.834 21.7422L195.998 21.5749L195.834 21.4077C196.162 20.9059 195.834 20.2369 195.341 19.5679Z"
    fill="white"/>
  <path
    d="M182.033 19.5679L178.419 15.0523C178.255 14.885 177.926 14.3833 177.269 14.0488C176.119 13.547 174.805 13.8815 173.983 14.885C173.49 15.554 173.326 16.3902 173.49 17.2265C173.655 17.8955 173.983 18.3972 174.148 18.5645L176.612 21.5749L173.983 24.9199C172.669 26.5923 173.162 28.0976 173.983 28.9338L176.448 31.9443L173.819 35.2892C173.655 35.6237 172.998 36.4599 172.998 37.6307V38.1324L173.326 38.6342C173.819 39.4704 174.64 39.9721 175.462 39.9721H175.626C176.448 39.9721 177.269 39.6376 177.762 38.8014L181.705 33.9512C182.198 33.2822 182.362 32.7805 182.526 32.1115L182.691 31.9443L182.526 31.777C182.526 31.108 182.198 30.6063 181.705 29.9373L181.048 29.2683C180.555 28.5993 180.062 28.0976 179.569 27.4286C179.405 27.2613 179.241 27.0941 179.076 26.9268C179.898 25.7561 180.883 24.7526 181.705 23.5819C182.198 22.9129 182.526 22.4111 182.526 21.7422L182.691 21.5749L182.526 21.4077C182.855 20.9059 182.526 20.2369 182.033 19.5679Z"
    fill="white"/>
  <path
    d="M375.732 47.8328H382.467V6.85714H415.983V47.8328H422.719V0.167248H375.732V47.8328Z"
    fill="white"/>
  <path
    d="M389.039 47.8328H395.775V20.5714H402.511V47.8328H409.247V13.7143H389.039V47.8328Z"
    fill="white"/>
  <path
    d="M281.758 34.2857H288.493C288.493 24.7526 288.493 16.5575 288.493 7.02439H308.701V48H315.437V0.167248H281.922V34.2857H281.758Z"
    fill="white"/>
  <path d="M154.268 13.7143H120.753V20.5714H154.268V13.7143Z" fill="white"/>
  <path
    d="M295.229 41.1429H275.022V0.167248H268.286V48C279.95 48 290.136 48 301.801 48V13.7143H295.065V41.1429H295.229Z"
    fill="white"/>
  <path d="M154.268 27.4286H120.753V34.2857H154.268V27.4286Z" fill="white"/>
  <path
    d="M107.281 47.8328H154.268V40.9756H114.017V6.85714H154.268V0.167248C143.59 0.167248 116.153 0.167248 107.281 0.167248V47.8328Z"
    fill="white"/>
  <path d="M261.55 13.7143H228.035V20.5714H261.55V13.7143Z" fill="white"/>
  <path
    d="M214.727 47.8328H261.714V40.9756H221.463V6.85714H261.714V0.167248C251.035 0.167248 223.599 0.167248 214.727 0.167248V47.8328Z"
    fill="white"/>
  <path d="M261.55 27.4286H228.035V34.2857H261.55V27.4286Z" fill="white"/>
  <path d="M46.987 27.4286H13.4718V34.2857H46.987V27.4286Z" fill="white"/>
  <path d="M46.987 13.7143H13.4718V20.5714H46.987V13.7143Z" fill="white"/>
  <path
    d="M530 6.85714V0.167248C521.128 0.167248 493.692 0.167248 483.013 0.167248V20.7387H530V13.7143H489.749V6.85714H530Z"
    fill="white"/>
  <path
    d="M483.013 34.2857H523.264V41.1429H483.013V48H530V27.4286C503.714 27.4286 509.464 27.4286 483.013 27.4286V34.2857Z"
    fill="white"/>
  <path
    d="M0 47.8328H46.987V40.9756H6.7359V6.85714H46.987V0.167248C36.3081 0.167248 8.87167 0.167248 0 0.167248V47.8328Z"
    fill="white"/>
  <path
    d="M449.498 0.167248H442.762V7.02439H449.498C449.498 4.68293 449.498 2.50871 449.498 0.167248Z"
    fill="white"/>
  <path d="M436.026 0.167248H429.29V47.8328H476.277V41.1429H436.026V0.167248Z"
        fill="white"/>
  <path
    d="M449.498 13.7143H442.762V20.5714H449.498C449.498 18.23 449.498 16.0557 449.498 13.7143Z"
    fill="white"/>
  <path d="M462.97 27.4286H456.234V34.2857H462.97V27.4286Z" fill="white"/>
  <path d="M449.498 27.4286H442.762V34.2857H449.498V27.4286Z" fill="white"/>
  <path d="M476.277 13.7143H462.97V0.167248H456.234V20.5714H476.277V13.7143Z"
        fill="white"/>
  <path d="M476.441 27.4286H469.706V34.2857H476.441V27.4286Z" fill="white"/>
  <path
    d="M73.7663 0.167248H67.0304V7.02439H73.7663C73.7663 4.68293 73.7663 2.50871 73.7663 0.167248Z"
    fill="white"/>
  <path d="M60.4588 0.167248H53.7229V47.8328H100.71V41.1429H60.4588V0.167248Z"
        fill="white"/>
  <path
    d="M73.7663 13.7143H67.0304V20.5714H73.7663C73.7663 18.23 73.7663 16.0557 73.7663 13.7143Z"
    fill="white"/>
  <path d="M87.2381 27.4286H80.5022V34.2857H87.2381V27.4286Z" fill="white"/>
  <path d="M73.7663 27.4286H67.0304V34.2857H73.7663V27.4286Z" fill="white"/>
  <path d="M100.71 13.7143H87.2381V0.167248H80.5022V20.5714H100.71V13.7143Z"
        fill="white"/>
  <path d="M100.71 27.4286H93.974V34.2857H100.71V27.4286Z" fill="white"/>
  <path d="M322.173 13.7143V20.5714H328.58V13.7143H322.173Z" fill="white"/>
  <path d="M348.952 40.9756H342.216V47.8328H348.952V40.9756Z" fill="white"/>
  <path d="M348.952 27.2613H342.216V33.9512H348.952V27.2613Z" fill="white"/>
  <path d="M335.316 20.5714H342.052V13.7143H335.316V20.5714Z" fill="white"/>
  <path d="M322.173 34.1185H328.909V47.6655H335.48V27.2613H322.173V34.1185Z"
        fill="white"/>
  <path d="M355.524 47.6655H362.095V34.1185H368.831V27.2613H355.524V47.6655Z"
        fill="white"/>
  <path d="M348.952 20.5714H355.36V13.7143H348.952V20.5714Z" fill="white"/>
  <path d="M362.26 20.4042H362.095V20.5714H368.831V13.7143H362.26V20.4042Z"
        fill="white"/>
  <path d="M368.831 0H322.173V6.85714H368.831V0Z" fill="white"/>
  <path d="M348.95 20.4042H348.788V20.5714H348.95V20.4042Z" fill="white"/>
  <path d="M362.258 20.4042V13.7143H362.095V20.4042L362.258 20.4042Z"
        fill="white"/>
  <path
    d="M161.004 47.8328H167.74V6.85714H201.255V47.8328H207.991V0H161.004V47.8328Z"
    fill="white"/>
  <path
    d="M195.341 19.5679L191.727 15.0523C191.562 14.885 191.234 14.3833 190.577 14.0488C189.427 13.547 188.112 13.8815 187.291 14.885C186.798 15.554 186.634 16.3902 186.798 17.2265C186.962 17.8955 187.291 18.3972 187.455 18.5645L189.919 21.5749L187.291 24.9199C185.976 26.5923 186.469 28.0976 187.291 28.9338L189.755 31.9443L187.126 35.2892C186.962 35.6237 186.305 36.4599 186.305 37.6307V38.1324L186.634 38.6342C187.126 39.4704 187.948 39.9721 188.769 39.9721H188.934C189.755 39.9721 190.577 39.6376 191.069 38.8014L195.012 33.9512C195.505 33.2822 195.67 32.7805 195.834 32.1115L195.998 31.9443L195.834 31.777C195.834 31.108 195.505 30.6063 195.012 29.9373L194.355 29.2683C193.862 28.5993 193.369 28.0976 192.877 27.4286C192.712 27.2613 192.548 27.0941 192.384 26.9268C193.205 25.7561 194.191 24.7526 195.012 23.5819C195.505 22.9129 195.834 22.4111 195.834 21.7422L195.998 21.5749L195.834 21.4077C196.162 20.9059 195.834 20.2369 195.341 19.5679Z"
    fill="white"/>
  <path
    d="M182.033 19.5679L178.419 15.0523C178.255 14.885 177.926 14.3833 177.269 14.0488C176.119 13.547 174.805 13.8815 173.983 14.885C173.49 15.554 173.326 16.3902 173.49 17.2265C173.655 17.8955 173.983 18.3972 174.148 18.5645L176.612 21.5749L173.983 24.9199C172.669 26.5923 173.162 28.0976 173.983 28.9338L176.448 31.9443L173.819 35.2892C173.655 35.6237 172.998 36.4599 172.998 37.6307V38.1324L173.326 38.6342C173.819 39.4704 174.64 39.9721 175.462 39.9721H175.626C176.448 39.9721 177.269 39.6376 177.762 38.8014L181.705 33.9512C182.198 33.2822 182.362 32.7805 182.526 32.1115L182.691 31.9443L182.526 31.777C182.526 31.108 182.198 30.6063 181.705 29.9373L181.048 29.2683C180.555 28.5993 180.062 28.0976 179.569 27.4286C179.405 27.2613 179.241 27.0941 179.076 26.9268C179.898 25.7561 180.883 24.7526 181.705 23.5819C182.198 22.9129 182.526 22.4111 182.526 21.7422L182.691 21.5749L182.526 21.4077C182.855 20.9059 182.526 20.2369 182.033 19.5679Z"
    fill="white"/>
  <path
    d="M375.732 47.8328H382.467V6.85714H415.983V47.8328H422.719V0.167248H375.732V47.8328Z"
    fill="white"/>
  <path
    d="M389.039 47.8328H395.775V20.5714H402.511V47.8328H409.247V13.7143H389.039V47.8328Z"
    fill="white"/>
  <path
    d="M281.758 34.2857H288.493C288.493 24.7526 288.493 16.5575 288.493 7.02439H308.701V48H315.437V0.167248H281.922V34.2857H281.758Z"
    fill="white"/>
  <path d="M154.268 13.7143H120.753V20.5714H154.268V13.7143Z" fill="white"/>
  <path
    d="M295.229 41.1429H275.022V0.167248H268.286V48C279.95 48 290.136 48 301.801 48V13.7143H295.065V41.1429H295.229Z"
    fill="white"/>
  <path d="M154.268 27.4286H120.753V34.2857H154.268V27.4286Z" fill="white"/>
  <path
    d="M107.281 47.8328H154.268V40.9756H114.017V6.85714H154.268V0.167248C143.59 0.167248 116.153 0.167248 107.281 0.167248V47.8328Z"
    fill="white"/>
  <path d="M261.55 13.7143H228.035V20.5714H261.55V13.7143Z" fill="white"/>
  <path
    d="M214.727 47.8328H261.714V40.9756H221.463V6.85714H261.714V0.167248C251.035 0.167248 223.599 0.167248 214.727 0.167248V47.8328Z"
    fill="white"/>
  <path d="M261.55 27.4286H228.035V34.2857H261.55V27.4286Z" fill="white"/>
  <path d="M46.987 27.4286H13.4718V34.2857H46.987V27.4286Z" fill="white"/>
  <path d="M46.987 13.7143H13.4718V20.5714H46.987V13.7143Z" fill="white"/>
  <path
    d="M530 6.85714V0.167248C521.128 0.167248 493.692 0.167248 483.013 0.167248V20.7387H530V13.7143H489.749V6.85714H530Z"
    fill="white"/>
  <path
    d="M483.013 34.2857H523.264V41.1429H483.013V48H530V27.4286C503.714 27.4286 509.464 27.4286 483.013 27.4286V34.2857Z"
    fill="white"/>
  <path
    d="M0 47.8328H46.987V40.9756H6.7359V6.85714H46.987V0.167248C36.3081 0.167248 8.87167 0.167248 0 0.167248V47.8328Z"
    fill="white"/>
  <path
    d="M449.498 0.167248H442.762V7.02439H449.498C449.498 4.68293 449.498 2.50871 449.498 0.167248Z"
    fill="white"/>
  <path d="M436.026 0.167248H429.29V47.8328H476.277V41.1429H436.026V0.167248Z"
        fill="white"/>
  <path
    d="M449.498 13.7143H442.762V20.5714H449.498C449.498 18.23 449.498 16.0557 449.498 13.7143Z"
    fill="white"/>
  <path d="M462.97 27.4286H456.234V34.2857H462.97V27.4286Z" fill="white"/>
  <path d="M449.498 27.4286H442.762V34.2857H449.498V27.4286Z" fill="white"/>
  <path d="M476.277 13.7143H462.97V0.167248H456.234V20.5714H476.277V13.7143Z"
        fill="white"/>
  <path d="M476.441 27.4286H469.706V34.2857H476.441V27.4286Z" fill="white"/>
  <path
    d="M73.7663 0.167248H67.0304V7.02439H73.7663C73.7663 4.68293 73.7663 2.50871 73.7663 0.167248Z"
    fill="white"/>
  <path d="M60.4588 0.167248H53.7229V47.8328H100.71V41.1429H60.4588V0.167248Z"
        fill="white"/>
  <path
    d="M73.7663 13.7143H67.0304V20.5714H73.7663C73.7663 18.23 73.7663 16.0557 73.7663 13.7143Z"
    fill="white"/>
  <path d="M87.2381 27.4286H80.5022V34.2857H87.2381V27.4286Z" fill="white"/>
  <path d="M73.7663 27.4286H67.0304V34.2857H73.7663V27.4286Z" fill="white"/>
  <path d="M100.71 13.7143H87.2381V0.167248H80.5022V20.5714H100.71V13.7143Z"
        fill="white"/>
  <path d="M100.71 27.4286H93.974V34.2857H100.71V27.4286Z" fill="white"/>
</svg>
