<svg width="96" height="96" viewBox="0 0 96 96" fill="none"
     xmlns="http://www.w3.org/2000/svg">
  <rect width="96" height="96" fill="#2A3486"/>
  <path
    d="M18.5116 29.7575H41.2326V34.325H23.0775V48.0825H27.5891V38.9475H41.2326V75.4875H18.5116V29.7575ZM18.5116 20.5675H41.2326V25.135H18.5116V20.5675ZM14 80H45.7442V16H14V80Z"
    fill="white"/>
  <path
    d="M77.4884 75.4325H54.7674V70.865H72.9225V52.485H77.4341V75.4325H77.4884ZM59.3333 66.1874H54.7674V61.6199H59.279V66.1874H59.3333ZM54.7674 52.4299H59.279V56.9974H54.7674V52.4299ZM63.8449 52.4299H68.3565V56.9974H63.8449V52.4299ZM66.1279 61.4549C67.4325 61.4549 68.5196 62.5555 68.5196 63.8762C68.5196 65.1969 67.4325 66.2975 66.1279 66.2975C64.8233 66.2975 63.7362 65.1969 63.7362 63.8762C63.7362 62.5555 64.8233 61.4549 66.1279 61.4549ZM54.7674 20.5675H77.4341V34.325H68.3565V41.0937C68.9544 41.6991 74.3901 46.9819 75.2598 47.8624H63.7906V29.7575H72.8681V25.19H59.279V47.8624H54.7674V20.5675ZM82 47.8624C81.2934 47.147 76.5644 42.6346 72.9225 38.9475H81.9456V16H50.2558V80H82V47.8624Z"
    fill="white"/>
  <path
    d="M26.8825 61.785C27.4804 61.0146 28.0783 60.2992 28.6763 59.5288C29.0024 59.1436 29.1655 58.7034 29.2198 58.2631V58.043C29.1655 57.6578 29.0024 57.2175 28.6763 56.8323L26.1759 53.7506C26.0671 53.6406 25.8497 53.3104 25.4149 53.1453C24.6539 52.8151 23.7298 53.0353 23.2406 53.6956C22.9145 54.1359 22.8058 54.7412 22.9145 55.2365C23.0232 55.7317 23.295 56.0069 23.4037 56.1169L25.0887 58.1531L23.295 60.3543C22.9145 60.8495 22.7514 61.2898 22.7514 61.73C22.7514 62.1152 22.8601 62.6105 23.295 63.1058L25.0887 65.307L23.4037 67.3431C23.295 67.4531 23.0232 67.7283 22.9145 68.2236C22.8058 68.7739 22.9145 69.3242 23.2406 69.7644C23.7298 70.4248 24.5995 70.6449 25.4149 70.3147C25.8497 70.1496 26.0671 69.8194 26.1759 69.7094L28.6763 66.6277C29.0024 66.2425 29.1655 65.8573 29.2198 65.417V65.1969C29.2198 64.7567 29.0024 64.3715 28.6763 63.9312C28.0783 63.2709 27.4804 62.5555 26.8825 61.785Z"
    fill="white"/>
  <path
    d="M34.6011 61.785C35.199 61.0146 35.797 60.2992 36.3949 59.5288C36.721 59.1436 36.8841 58.7034 36.9384 58.2631V58.043C36.8841 57.6578 36.721 57.2175 36.3949 56.8323L33.8945 53.7506C33.7858 53.6406 33.5683 53.3104 33.1335 53.1453C32.3725 52.8151 31.4484 53.0353 30.9592 53.6956C30.6331 54.1359 30.5244 54.7412 30.6331 55.2365C30.7418 55.7317 31.0136 56.0069 31.1223 56.1169L32.8074 58.1531L31.0136 60.3543C30.6331 60.8495 30.47 61.2898 30.47 61.73C30.47 62.1152 30.5787 62.6105 31.0136 63.1058L32.8074 65.307L31.1223 67.3431C31.0136 67.4531 30.7418 67.7283 30.6331 68.2236C30.5244 68.7739 30.6331 69.3242 30.9592 69.7644C31.4484 70.4248 32.3181 70.6449 33.1335 70.3147C33.5683 70.1496 33.7858 69.8194 33.8945 69.7094L36.3949 66.6277C36.721 66.2425 36.8841 65.8573 36.9384 65.417V65.1969C36.9384 64.7567 36.721 64.3715 36.3949 63.9312C35.8513 63.2709 35.2534 62.5555 34.6011 61.785Z"
    fill="white"/>
</svg>
