<svg width="840" height="190" viewBox="0 0 840 190" fill="none"
     xmlns="http://www.w3.org/2000/svg">
  <g opacity="0.1">
    <path
      d="M54.2636 108.2V189.567H81.6124V135.467H190.14V108.2H54.2636ZM0 0V189.567H27.3488V81.3667H190.14V54.1002H27.3488V27.2665H190.14V0H0Z"
      fill="white"/>
    <path d="M378.543 0V163.166H243.969V0H217.054V190H405.457V0H378.543Z"
          fill="white"/>
    <path
      d="M813.085 162.733H677.209V135.467H785.736V27.2665H812.651V162.733H813.085ZM677.209 81.3667H704.124V108.2H677.209V81.3667ZM677.209 27.2665H704.124V54.1002H677.209V27.2665ZM744.93 80.5011C752.744 80.5011 759.256 86.9932 759.256 94.7836C759.256 102.574 752.744 109.066 744.93 109.066C737.116 109.066 730.605 102.574 730.605 94.7836C730.605 86.9932 737.116 80.5011 744.93 80.5011ZM731.473 27.2665H758.388V54.1002H731.473V27.2665ZM649.86 0V189.567H840V0H649.86Z"
      fill="white"/>
    <path
      d="M568.248 54.1002H486.636V189.567H513.984V81.3667H568.248V54.1002ZM568.682 135.467H622.946V0H432.806V189.567H460.155V27.2665H596.031V108.2H541.767V109.932V148.018C545.24 151.481 577.364 183.941 583.008 190H623.38C617.736 185.239 589.953 156.674 568.682 135.467Z"
      fill="white"/>
    <path
      d="M293.457 81.7994C293.457 81.7994 293.457 81.3666 293.457 81.7994C293.457 81.3666 293.457 81.3666 293.457 81.7994C296.93 77.4714 300.837 73.1434 304.31 68.8154C306.481 66.2186 307.349 64.0546 307.349 61.4577V60.1593C307.349 57.9953 306.046 55.3985 304.31 53.2345L289.116 34.624C288.682 33.7584 287.38 32.0272 284.775 31.1616C280 28.9976 274.791 30.296 271.752 34.1912C270.015 36.788 269.147 40.2505 270.015 43.2801C270.45 46.3097 272.186 48.0409 272.62 48.4737L282.605 60.5921L271.752 73.5762C269.581 76.6058 268.713 79.2026 268.713 81.3666C268.713 83.9634 269.581 86.5603 271.752 89.1571L282.605 102.141L272.62 114.26C272.186 114.692 270.45 116.424 270.015 119.453C269.147 122.483 270.015 125.945 271.752 128.542C274.357 132.437 280 133.736 284.775 131.572C287.38 130.273 288.682 128.542 289.116 128.109L304.31 109.932C306.046 107.768 307.349 105.171 307.349 103.007V101.708C307.349 99.1115 306.046 96.9475 304.31 94.3507C300.837 90.4555 297.364 86.1275 293.457 81.7994Z"
      fill="white"/>
    <path
      d="M339.907 81.7994C339.907 81.7994 339.907 81.3666 339.907 81.7994C339.907 81.3666 339.907 81.3666 339.907 81.7994C343.38 77.4714 347.287 73.1434 350.76 68.8154C352.93 66.2186 353.798 64.0546 353.798 61.4577V60.1593C353.798 57.9953 352.496 55.3985 350.76 53.2345L335.566 34.624C335.132 33.7584 333.829 32.0272 331.225 31.1616C326.45 28.9976 321.24 30.296 318.202 34.1912C316.465 36.788 315.597 40.2505 316.465 43.2801C316.899 46.3097 318.636 48.0409 319.07 48.4737L329.054 60.5921L318.202 73.5762C316.031 76.6058 315.163 79.2026 315.163 81.3666C315.163 83.9634 316.031 86.5603 318.202 89.1571L329.054 102.141L319.07 114.26C318.636 114.692 316.899 116.424 316.465 119.453C315.597 122.483 316.465 125.945 318.202 128.542C320.806 132.437 326.45 133.736 331.225 131.572C333.829 130.273 335.132 128.542 335.566 128.109L350.76 109.932C352.496 107.768 353.798 105.171 353.798 103.007V101.708C353.798 99.1115 352.496 96.9475 350.76 94.3507C346.853 90.4555 343.38 86.1275 339.907 81.7994Z"
      fill="white"/>
  </g>
</svg>
